PathFileType	4	(X/Y/Z)	/Users/guillermo/Documents/TESIS/Procesamiento_videos/data/sports2d_raw/Cam1_rep/sujeto01_caml/sujeto01_rep09_camL_Sports2D/sujeto01_rep09_camL_Sports2D_px_person01.trc
DataRate	CameraRate	NumFrames	NumMarkers	Units	OrigDataRate	OrigDataStartFrame	OrigNumFrames
120.0	120.0	13	22	m	120.0	34	68
Frame#	Time	Hip			RHip			RKnee			RAnkle			RBigToe			RSmallToe			RHeel			LHip			LKnee			LAnkle			LBigToe			LSmallToe			LHeel			Neck			Head			Nose			RShoulder			RElbow			RWrist			LShoulder			LElbow			LWrist			
		X1	Y1	Z1	X2	Y2	Z2	X3	Y3	Z3	X4	Y4	Z4	X5	Y5	Z5	X6	Y6	Z6	X7	Y7	Z7	X8	Y8	Z8	X9	Y9	Z9	X10	Y10	Z10	X11	Y11	Z11	X12	Y12	Z12	X13	Y13	Z13	X14	Y14	Z14	X15	Y15	Z15	X16	Y16	Z16	X17	Y17	Z17	X18	Y18	Z18	X19	Y19	Z19	X20	Y20	Z20	X21	Y21	Z21	X22	Y22	Z22
34	0.2833333333333333	945.6156005859375	546.0450439453125	0.0	967.3319091796875	547.130859375	0.0	931.5	641.5968017578125	0.0	931.5	755.607421875	0.0	895.6680908203125	781.6669921875	0.0	904.3546142578125	778.4095458984375	0.0	941.2723388671875	763.2081298828125	0.0	928.2425537109375	546.0450439453125	0.0	927.15673828125	647.02587890625	0.0	927.15673828125	757.779052734375	0.0	897.8397216796875	799.0400390625	0.0	902.1829833984375	796.868408203125	0.0	941.2723388671875	769.7230224609375	0.0	927.15673828125	416.8330078125	0.0	909.78369140625	391.8592529296875	0.0	901.09716796875	426.6053466796875	0.0	971.6751708984375	453.750732421875	0.0	1003.163818359375	513.4705810546875	0.0	1010.7645263671875	575.362060546875	0.0	922.8134765625	407.0606689453125	0.0	942.358154296875	439.6351318359375	0.0	936.9290771484375	504.7840576171875	0.0
35	0.2916666666666667	942.9287109375	547.130859375	0.0	965.384765625	552.4775390625	0.0	929.02734375	647.6484375	0.0	936.5126953125	759.9287109375	0.0	894.80859375	789.8701171875	0.0	903.36328125	785.5927734375	0.0	945.0673828125	768.4833984375	0.0	922.611328125	547.130859375	0.0	922.611328125	651.92578125	0.0	923.6806640625	762.0673828125	0.0	896.947265625	809.1181640625	0.0	900.1552734375	806.9794921875	0.0	938.6513671875	771.69140625	0.0	917.2646484375	422.0185546875	0.0	903.36328125	398.4931640625	0.0	894.80859375	436.9892578125	0.0	968.5927734375	458.3759765625	0.0	999.603515625	522.5361328125	0.0	1008.158203125	582.4189453125	0.0	914.056640625	414.533203125	0.0	939.720703125	442.3359375	0.0	938.6513671875	508.634765625	0.0
36	0.3	939.076171875	558.1988525390625	0.0	960.5416259765625	561.588134765625	0.0	927.778564453125	658.74755859375	0.0	939.076171875	764.945068359375	0.0	896.145263671875	796.578369140625	0.0	907.44287109375	790.9295654296875	0.0	946.9844970703125	776.24267578125	0.0	918.740478515625	557.069091796875	0.0	916.48095703125	661.007080078125	0.0	922.1297607421875	769.464111328125	0.0	896.145263671875	811.2652587890625	0.0	898.40478515625	811.2652587890625	0.0	933.4273681640625	779.6319580078125	0.0	914.221435546875	435.054931640625	0.0	900.664306640625	405.68115234375	0.0	887.107177734375	440.7037353515625	0.0	962.8011474609375	459.90966796875	0.0	995.564208984375	532.21435546875	0.0	1004.602294921875	598.8702392578125	0.0	911.9619140625	427.1466064453125	0.0	936.816650390625	444.093017578125	0.0	941.335693359375	511.878662109375	0.0
37	0.30833333333333335	933.9298095703125	561.816650390625	0.0	955.5591430664062	563.8765869140625	0.0	925.6900634765625	665.8434448242188	0.0	942.1695556640625	776.050048828125	0.0	906.1206665039062	802.8292236328125	0.0	911.2705078125	798.7093505859375	0.0	952.46923828125	790.4696044921875	0.0	917.4503173828125	561.816650390625	0.0	907.150634765625	667.9033813476562	0.0	926.7200317382812	777.0800170898438	0.0	896.8509521484375	809.009033203125	0.0	900.9708251953125	810.0390014648438	0.0	940.109619140625	791.4995727539062	0.0	913.3304443359375	437.19049072265625	0.0	900.9708251953125	416.59112548828125	0.0	886.55126953125	452.6400146484375	0.0	960.708984375	466.02960205078125	0.0	992.6380004882812	538.1273803710938	0.0	998.8178100585938	607.13525390625	0.0	905.0906982421875	438.220458984375	0.0	935.98974609375	449.55010986328125	0.0	943.1995239257812	510.3182373046875	0.0
38	0.31666666666666665	933.2660522460938	567.0997924804688	0.0	955.3302612304688	571.5126342773438	0.0	923.337158203125	670.8015747070312	0.0	942.0917358398438	778.9161987304688	0.0	905.685791015625	806.4964599609375	0.0	912.3050537109375	799.877197265625	0.0	952.0206298828125	789.9483032226562	0.0	914.511474609375	567.0997924804688	0.0	903.4793701171875	675.2144165039062	0.0	929.9564208984375	777.81298828125	0.0	896.860107421875	809.8060913085938	0.0	902.3761596679688	812.0125122070312	0.0	944.2981567382812	791.051513671875	0.0	907.8922119140625	441.33380126953125	0.0	899.0665283203125	417.06317138671875	0.0	881.4151611328125	452.36590576171875	0.0	958.639892578125	473.326904296875	0.0	986.2201538085938	542.8291625976562	0.0	993.942626953125	609.0217895507812	0.0	891.3440551757812	440.2305908203125	0.0	931.0596313476562	449.0562744140625	0.0	945.4013671875	511.93927001953125	0.0
39	0.325	933.3850708007812	566.8212890625	0.0	955.2835693359375	572.0352172851562	0.0	920.8716430664062	674.2282104492188	0.0	941.7273559570312	779.549560546875	0.0	907.3154296875	807.7047729492188	0.0	911.486572265625	803.5336303710938	0.0	953.197998046875	791.0202026367188	0.0	913.5721435546875	567.8640747070312	0.0	897.9303588867188	677.3565673828125	0.0	929.2139282226562	781.6351318359375	0.0	896.8875732421875	810.8331298828125	0.0	901.0587158203125	812.918701171875	0.0	943.8129272460938	793.1057739257812	0.0	907.3154296875	441.68701171875	0.0	897.9303588867188	416.66015625	0.0	886.459716796875	455.24322509765625	0.0	954.2407836914062	470.885009765625	0.0	981.3532104492188	547.0083618164062	0.0	988.6527099609375	615.8322143554688	0.0	891.6736450195312	446.90093994140625	0.0	926.0855712890625	458.37158203125	0.0	949.02685546875	510.5108642578125	0.0
40	0.3333333333333333	932.4706420898438	569.2818603515625	0.0	954.369140625	574.4957885742188	0.0	918.9144287109375	676.6887817382812	0.0	940.8129272460938	784.095703125	0.0	903.2726440429688	810.1653442382812	0.0	909.5293579101562	804.951416015625	0.0	953.3263549804688	795.5663452148438	0.0	915.7860717773438	569.2818603515625	0.0	894.9303588867188	680.8599243164062	0.0	930.3850708007812	784.095703125	0.0	894.9303588867188	810.1653442382812	0.0	901.1870727539062	813.293701171875	0.0	948.1124267578125	796.609130859375	0.0	905.3582153320312	444.1475830078125	0.0	899.1015014648438	412.864013671875	0.0	888.6736450195312	443.10479736328125	0.0	951.2407836914062	474.38836669921875	0.0	976.2676391601562	549.4689331054688	0.0	983.567138671875	624.5494995117188	0.0	893.8875732421875	446.233154296875	0.0	925.171142578125	461.87493896484375	0.0	952.2835693359375	507.75750732421875	0.0
41	0.3416666666666667	934.5205078125	571.1982421875	0.0	955.3212890625	579.5185546875	0.0	917.8798828125	678.322265625	0.0	939.720703125	784.40625	0.0	902.279296875	811.447265625	0.0	907.4794921875	806.2470703125	0.0	953.2412109375	795.8466796875	0.0	917.8798828125	573.2783203125	0.0	888.7587890625	680.40234375	0.0	930.3603515625	781.2861328125	0.0	896.0390625	809.3671875	0.0	902.279296875	812.4873046875	0.0	948.041015625	792.7265625	0.0	905.3994140625	450.5537109375	0.0	899.1591796875	412.072265625	0.0	891.87890625	438.0732421875	0.0	943.880859375	474.474609375	0.0	971.9619140625	548.3173828125	0.0	976.1220703125	630.48046875	0.0	897.0791015625	454.7138671875	0.0	924.1201171875	465.1142578125	0.0	953.2412109375	505.67578125	0.0
42	0.35	936.0562133789062	571.742431640625	0.0	955.869140625	582.1702880859375	0.0	914.15771484375	677.0637817382812	0.0	940.2273559570312	780.299560546875	0.0	908.9437866210938	811.5831298828125	0.0	916.2432861328125	806.3692016601562	0.0	951.697998046875	791.7702026367188	0.0	921.4572143554688	573.8280029296875	0.0	881.8313598632812	681.2349243164062	0.0	926.671142578125	779.2567749023438	0.0	894.3447875976562	810.5403442382812	0.0	900.6015014648438	812.6259155273438	0.0	942.3129272460938	790.7274169921875	0.0	904.7726440429688	453.90765380859375	0.0	898.5159301757812	412.19622802734375	0.0	891.2164306640625	440.3514404296875	0.0	936.0562133789062	473.7205810546875	0.0	967.3397827148438	555.057861328125	0.0	973.5964965820312	635.3523559570312	0.0	897.47314453125	459.12158203125	0.0	919.3716430664062	468.50665283203125	0.0	955.869140625	502.9185791015625	0.0
43	0.35833333333333334	936.0562133789062	575.91357421875	0.0	954.8263549804688	586.3414306640625	0.0	909.986572265625	682.2777099609375	0.0	941.2701416015625	780.299560546875	0.0	908.9437866210938	814.7114868164062	0.0	918.328857421875	808.4547729492188	0.0	952.7407836914062	790.7274169921875	0.0	920.4144287109375	577.9991455078125	0.0	876.617431640625	684.36328125	0.0	925.6283569335938	777.1712036132812	0.0	894.3447875976562	810.5403442382812	0.0	900.6015014648438	811.5831298828125	0.0	941.2701416015625	787.5990600585938	0.0	905.8154296875	455.99322509765625	0.0	899.5587158203125	412.19622802734375	0.0	891.2164306640625	440.3514404296875	0.0	932.9278564453125	472.67779541015625	0.0	961.0830688476562	558.1862182617188	0.0	968.382568359375	637.4379272460938	0.0	893.302001953125	462.24993896484375	0.0	909.986572265625	473.7205810546875	0.0	953.7835693359375	501.87579345703125	0.0
44	0.36666666666666664	937.611328125	580.5377197265625	0.0	955.2608642578125	591.9580078125	0.0	905.4268798828125	680.2056884765625	0.0	940.7259521484375	775.7208251953125	0.0	906.465087890625	811.0198974609375	0.0	922.0382080078125	804.7906494140625	0.0	952.146240234375	786.1029052734375	0.0	919.9617919921875	581.575927734375	0.0	872.2042236328125	686.4349365234375	0.0	927.229248046875	776.759033203125	0.0	896.0830078125	813.0963134765625	0.0	901.2740478515625	814.134521484375	0.0	943.840576171875	787.14111328125	0.0	905.4268798828125	458.0291748046875	0.0	900.23583984375	412.3480224609375	0.0	890.8919677734375	438.30322265625	0.0	933.45849609375	474.6405029296875	0.0	955.2608642578125	566.0028076171875	0.0	963.5665283203125	646.9830322265625	0.0	888.8155517578125	465.296630859375	0.0	903.3504638671875	476.7169189453125	0.0	945.9169921875	500.595703125	0.0
45	0.375	937.0872802734375	583.01953125	0.0	954.674560546875	592.3304443359375	0.0	903.9818115234375	682.3359375	0.0	940.19091796875	772.3414306640625	0.0	905.016357421875	809.5850830078125	0.0	914.3272705078125	804.412353515625	0.0	952.60546875	782.6868896484375	0.0	918.4654541015625	584.0540771484375	0.0	867.772705078125	689.5777587890625	0.0	926.7418212890625	774.4105224609375	0.0	895.7054443359375	813.7232666015625	0.0	901.9127197265625	814.7578125	0.0	944.3291015625	782.6868896484375	0.0	905.016357421875	457.8394775390625	0.0	899.8436279296875	413.35400390625	0.0	891.5672607421875	438.18310546875	0.0	930.8800048828125	471.28857421875	0.0	943.2945556640625	541.6376953125	0.0	955.7091064453125	537.49951171875	0.0	886.39453125	465.081298828125	0.0	905.016357421875	481.634033203125	0.0	940.19091796875	501.2904052734375	0.0
46	0.3833333333333333	935.37158203125	585.42626953125	0.0	952.927734375	594.720703125	0.0	902.32470703125	681.46875	0.0	939.50244140625	769.24951171875	0.0	905.4228515625	809.525390625	0.0	914.71728515625	804.36181640625	0.0	952.927734375	780.609375	0.0	915.75	586.458984375	0.0	864.1142578125	690.76318359375	0.0	924.01171875	772.34765625	0.0	895.095703125	812.62353515625	0.0	900.25927734375	813.65625	0.0	940.53515625	782.6748046875	0.0	903.357421875	458.40234375	0.0	899.2265625	413.99560546875	0.0	889.93212890625	438.78076171875	0.0	930.2080078125	471.82763671875	0.0	941.56787109375	534.8232421875	0.0	953.96044921875	537.92138671875	0.0	882.703125	466.6640625	0.0	899.2265625	484.22021484375	0.0	938.4697265625	504.87451171875	0.0
